<?xml version="1.0" encoding="UTF-8" standalone="no"?>
<!DOCTYPE svg PUBLIC "-//W3C//DTD SVG 1.1//EN" "http://www.w3.org/Graphics/SVG/1.1/DTD/svg11.dtd">
<svg width="100%" height="100%" viewBox="0 0 500 300" version="1.1" xmlns="http://www.w3.org/2000/svg" xmlns:xlink="http://www.w3.org/1999/xlink" xml:space="preserve" xmlns:serif="http://www.serif.com/" style="fill-rule:evenodd;clip-rule:evenodd;stroke-linejoin:round;stroke-miterlimit:2;">
    <rect id="Artboard1" x="0" y="0" width="500" height="300" style="fill:none;"/>
    <clipPath id="_clip1">
        <rect id="Artboard11" serif:id="Artboard1" x="0" y="0" width="500" height="300"/>
    </clipPath>
    <g clip-path="url(#_clip1)">
        <g transform="matrix(0.410257,0,0,0.205129,-490.165,-36.9378)">
            <path d="M1228.59,1288.25C1238.77,1288.25 1247.39,1281.05 1254.72,1266.8L1250.29,1259.98C1244.09,1271.75 1236.96,1277.42 1228.57,1277.42C1212.64,1277.42 1200.5,1253.82 1200.5,1222.35C1200.5,1191.15 1212.64,1167.54 1228.57,1167.54C1236.57,1167.54 1243.99,1173.24 1250,1184.85L1254.39,1177.77C1247.39,1163.92 1238.36,1156.67 1228.59,1156.67C1209.36,1156.67 1194.78,1185.51 1194.78,1222.37C1194.78,1259.49 1209.29,1288.25 1228.59,1288.25L1228.59,1288.25Z" style="fill:rgb(139,139,139);fill-rule:nonzero;"/>
        </g>
        <g transform="matrix(0.410257,0,0,0.205129,-490.165,-36.9378)">
            <path d="M1329.21,1288.77C1349.02,1288.77 1363.47,1259.03 1363.47,1222.56C1363.47,1185.82 1349.02,1156.16 1329.21,1156.16C1309.53,1156.16 1295.08,1185.82 1295.08,1222.56C1295.08,1259.03 1309.53,1288.77 1329.21,1288.77ZM1329.19,1277.9C1312.94,1277.9 1300.8,1253.26 1300.8,1222.57C1300.8,1191.63 1312.94,1166.99 1329.19,1166.99C1345.58,1166.99 1357.72,1191.63 1357.72,1222.57C1357.72,1253.26 1345.58,1277.9 1329.19,1277.9Z" style="fill:rgb(139,139,139);fill-rule:nonzero;"/>
        </g>
        <g transform="matrix(0.410257,0,0,0.205129,-490.165,-36.9378)">
            <path d="M1409.58,1286.45L1415.34,1286.45L1415.34,1174.78L1461.71,1286.45L1467.58,1286.45L1467.58,1158.44L1461.84,1158.44L1461.84,1270.42L1415.4,1158.48L1409.58,1158.48L1409.58,1286.45Z" style="fill:rgb(139,139,139);fill-rule:nonzero;"/>
        </g>
        <g transform="matrix(0.410257,0,0,0.205129,-490.165,-36.9378)">
            <path d="M1534.44,1286.44L1540.18,1286.44L1540.18,1169.05L1564.49,1169.05L1564.49,1158.44L1510.03,1158.44L1510.06,1169.05L1534.44,1169.05L1534.44,1286.44Z" style="fill:rgb(139,139,139);fill-rule:nonzero;"/>
        </g>
        <g transform="matrix(0.410257,0,0,0.205129,-490.165,-36.9378)">
            <path d="M1606.98,1286.44L1656.42,1286.44L1656.42,1275.83L1612.71,1275.83L1612.71,1222.31L1645.28,1222.31L1645.28,1212L1612.71,1211.96L1612.71,1168.91L1656.4,1168.91L1656.4,1158.44L1606.98,1158.44L1606.98,1286.44Z" style="fill:rgb(139,139,139);fill-rule:nonzero;"/>
        </g>
        <g transform="matrix(0.410257,0,0,0.205129,-490.165,-36.9378)">
            <path d="M1702.48,1286.45L1708.24,1286.45L1708.24,1174.78L1754.61,1286.45L1760.48,1286.45L1760.48,1158.44L1754.74,1158.44L1754.74,1270.42L1708.3,1158.48L1702.48,1158.48L1702.48,1286.45Z" style="fill:rgb(139,139,139);fill-rule:nonzero;"/>
        </g>
        <g transform="matrix(0.410257,0,0,0.205129,-490.165,-36.9378)">
            <path d="M1834.28,1287.73C1849,1287.58 1859.39,1274.18 1859.31,1252.85C1859.23,1234.13 1852.99,1224.97 1839.5,1218.72L1830.19,1214.4C1819.72,1209.49 1814.55,1203.22 1814.48,1190.65C1814.39,1176.07 1821.98,1168.09 1832.99,1167.7C1840.61,1167.46 1848.01,1172.15 1854.11,1179.86L1857.1,1170.83C1850.45,1162.43 1841.59,1157.01 1832.51,1157.19C1818.36,1157.47 1808.29,1170.07 1808.38,1190.35C1808.46,1208.66 1815.37,1218.48 1828.47,1224.6L1837.43,1228.81C1848.63,1234.11 1853.41,1239.24 1853.39,1252.98C1853.37,1268.23 1845.55,1276.92 1834.5,1277.2C1825.48,1277.41 1815.79,1272.34 1808.51,1263.41L1805.38,1272.44C1812.91,1282.04 1823.67,1287.84 1834.28,1287.73L1834.28,1287.73Z" style="fill:rgb(139,139,139);fill-rule:nonzero;"/>
        </g>
        <g transform="matrix(0.410257,0,0,0.205129,-490.165,-36.9378)">
            <path d="M1934.68,1288.25C1944.87,1288.25 1953.49,1281.05 1960.82,1266.8L1956.39,1259.98C1950.19,1271.75 1943.06,1277.42 1934.67,1277.42C1918.74,1277.42 1906.6,1253.82 1906.6,1222.35C1906.6,1191.15 1918.74,1167.54 1934.67,1167.54C1942.67,1167.54 1950.09,1173.24 1956.1,1184.85L1960.5,1177.77C1953.49,1163.92 1944.46,1156.67 1934.68,1156.67C1915.46,1156.67 1900.88,1185.51 1900.88,1222.37C1900.88,1259.49 1915.39,1288.25 1934.68,1288.25L1934.68,1288.25Z" style="fill:rgb(139,139,139);fill-rule:nonzero;"/>
        </g>
        <g transform="matrix(0.410257,0,0,0.205129,-490.165,-36.9378)">
            <rect x="2004.88" y="1158.44" width="5.76" height="128" style="fill:rgb(139,139,139);fill-rule:nonzero;"/>
        </g>
        <g transform="matrix(0.410257,0,0,0.205129,-490.165,-36.9378)">
            <path d="M2060.48,1286.44L2109.92,1286.44L2109.92,1275.83L2066.21,1275.83L2066.21,1222.31L2098.78,1222.31L2098.78,1212L2066.21,1211.96L2066.21,1168.91L2109.9,1168.91L2109.9,1158.44L2060.48,1158.44L2060.48,1286.44Z" style="fill:rgb(139,139,139);fill-rule:nonzero;"/>
        </g>
        <g transform="matrix(0.410257,0,0,0.205129,-490.165,-36.9378)">
            <path d="M2155.98,1286.45L2161.74,1286.45L2161.74,1174.78L2208.11,1286.45L2213.98,1286.45L2213.98,1158.44L2208.24,1158.44L2208.24,1270.42L2161.8,1158.48L2155.98,1158.48L2155.98,1286.45Z" style="fill:rgb(139,139,139);fill-rule:nonzero;"/>
        </g>
        <g transform="matrix(0.410257,0,0,0.205129,-490.165,-36.9378)">
            <path d="M2293.89,1288.25C2304.07,1288.25 2312.69,1281.05 2320.02,1266.8L2315.59,1259.98C2309.39,1271.75 2302.26,1277.42 2293.87,1277.42C2277.94,1277.42 2265.8,1253.82 2265.8,1222.35C2265.8,1191.15 2277.94,1167.54 2293.87,1167.54C2301.87,1167.54 2309.29,1173.24 2315.3,1184.85L2319.7,1177.77C2312.69,1163.92 2303.66,1156.67 2293.89,1156.67C2274.66,1156.67 2260.08,1185.51 2260.08,1222.37C2260.08,1259.49 2274.59,1288.25 2293.89,1288.25L2293.89,1288.25Z" style="fill:rgb(139,139,139);fill-rule:nonzero;"/>
        </g>
        <g transform="matrix(0.410257,0,0,0.205129,-490.165,-36.9378)">
            <path d="M2364.08,1286.44L2413.52,1286.44L2413.52,1275.83L2369.81,1275.83L2369.81,1222.31L2402.38,1222.31L2402.38,1212L2369.81,1211.96L2369.81,1168.91L2413.5,1168.91L2413.5,1158.44L2364.08,1158.44L2364.08,1286.44Z" style="fill:rgb(139,139,139);fill-rule:nonzero;"/>
        </g>
        <g transform="matrix(0.260299,0,0,0.260299,-164.861,-347.031)">
            <path d="M1726.44,1744.4C1727.45,1750.99 1727.98,1757.73 1727.98,1764.6C1727.98,1837.32 1668.94,1896.36 1596.22,1896.36C1523.51,1896.36 1464.47,1837.32 1464.47,1764.6C1464.47,1691.88 1523.51,1632.85 1596.22,1632.85C1628.39,1632.85 1657.88,1644.4 1680.77,1663.58C1704.73,1683.66 1721.46,1712.1 1726.44,1744.4" style="fill-opacity:0;"/>
        </g>
        <g transform="matrix(0.260299,0,0,0.260299,-164.861,-347.031)">
            <path d="M1550.59,1910.24C1488.64,1890.82 1443.63,1832.92 1443.63,1764.6C1443.63,1680.38 1512.01,1612.01 1596.22,1612.01C1633.48,1612.01 1667.64,1625.39 1694.15,1647.61C1718.06,1667.64 1735.73,1694.87 1743.86,1725.93L1700.21,1725.93C1693.43,1707.74 1682.01,1691.8 1667.39,1679.54C1648.12,1663.4 1623.3,1653.68 1596.22,1653.68C1535,1653.68 1485.3,1703.38 1485.3,1764.6C1485.3,1809.56 1512.11,1848.3 1550.59,1865.72L1550.59,1910.24ZM1743.86,1803.27C1730.57,1854.09 1691.7,1894.62 1641.86,1910.24L1641.86,1865.72C1668.7,1853.57 1689.86,1831.04 1700.21,1803.27L1743.86,1803.27Z" style="fill:rgb(133,133,133);"/>
        </g>
    </g>
</svg>
